<svg xmlns="http://www.w3.org/2000/svg" xmlns:xlink="http://www.w3.org/1999/xlink" width="64" height="64" viewBox="0 0 64 64">
  <defs>
    <filter id="Ellipse_2" x="8" y="8" width="56" height="56" filterUnits="userSpaceOnUse">
      <feOffset dx="4" dy="4" input="SourceAlpha"/>
      <feGaussianBlur stdDeviation="4" result="blur"/>
      <feFlood flood-opacity="0.2"/>
      <feComposite operator="in" in2="blur"/>
      <feComposite in="SourceGraphic"/>
    </filter>
    <filter id="Ellipse_295" x="0" y="0" width="56" height="56" filterUnits="userSpaceOnUse">
      <feOffset dx="-4" dy="-4" input="SourceAlpha"/>
      <feGaussianBlur stdDeviation="4" result="blur-2"/>
      <feFlood flood-color="#fff" flood-opacity="0.988"/>
      <feComposite operator="in" in2="blur-2"/>
      <feComposite in="SourceGraphic"/>
    </filter>
  </defs>
  <g id="Group_2140" data-name="Group 2140" transform="translate(-120 -501)">
    <g id="Group_765" data-name="Group 765" transform="translate(-7 -58)">
      <g id="Group_738" data-name="Group 738" transform="translate(143 575)">
        <g id="Group_317" data-name="Group 317">
          <g transform="matrix(1, 0, 0, 1, -16, -16)" filter="url(#Ellipse_2)">
            <circle id="Ellipse_2-2" data-name="Ellipse 2" cx="16" cy="16" r="16" transform="translate(16 16)" fill="#3b5998"/>
          </g>
          <g transform="matrix(1, 0, 0, 1, -16, -16)" filter="url(#Ellipse_295)">
            <circle id="Ellipse_295-2" data-name="Ellipse 295" cx="16" cy="16" r="16" transform="translate(16 16)" fill="#3b5998"/>
          </g>
          <path id="Path_8" data-name="Path 8" d="M46.77,32.35H44V42.978H39.807V32.35H37.812V28.615h1.995V26.2c0-1.728.784-4.435,4.232-4.435l3.107.014V25.4H44.892c-.37,0-.89.194-.89,1.018v2.2h3.135Z" transform="translate(-26.887 -15.744)" fill="#fff"/>
        </g>
      </g>
    </g>
  </g>
</svg>
